<svg width="357" height="185" viewBox="0 0 357 185" fill="none" xmlns="http://www.w3.org/2000/svg">
<path fill-rule="evenodd" clip-rule="evenodd" d="M343.621 69.8133C339.418 67.412 334.616 66.2113 329.213 66.2113C324.496 66.2113 320.208 67.1118 316.348 68.9128C312.489 70.6281 309.401 73.0294 307.086 76.1169V43.3126H289.076V138.509H307.086V99.1442C307.086 93.4838 308.501 89.1528 311.331 86.1511C314.247 83.0637 318.192 81.5199 323.166 81.5199C328.055 81.5199 331.914 83.0637 334.744 86.1511C337.575 89.1528 338.99 93.4838 338.99 99.1442V138.509H357V96.6999C357 90.2677 355.799 84.7789 353.398 80.2335C351.082 75.6023 347.823 72.1289 343.621 69.8133ZM197.828 83.4496C194.997 89.0242 193.582 95.4135 193.582 102.618C193.582 109.907 194.997 116.383 197.828 122.043C200.744 127.617 204.646 131.948 209.534 135.036C214.509 138.123 219.997 139.667 226.001 139.667C231.318 139.667 235.992 138.595 240.023 136.451C244.14 134.221 247.356 131.434 249.671 128.089V138.509H267.81V67.2404H249.671V77.4033C247.27 74.1443 244.054 71.4428 240.023 69.2987C236.078 67.1547 231.447 66.0826 226.129 66.0826C220.04 66.0826 214.509 67.5835 209.534 70.5852C204.646 73.5869 200.744 77.875 197.828 83.4496ZM247.098 91.6828C248.814 94.7703 249.671 98.501 249.671 102.875C249.671 107.249 248.814 111.022 247.098 114.196C245.383 117.283 243.068 119.684 240.152 121.4C237.236 123.029 234.105 123.844 230.761 123.844C227.502 123.844 224.414 122.986 221.498 121.271C218.668 119.556 216.352 117.111 214.551 113.938C212.836 110.679 211.979 106.906 211.979 102.618C211.979 98.3294 212.836 94.6416 214.551 91.5542C216.352 88.381 218.668 85.9796 221.498 84.3501C224.328 82.7206 227.416 81.9059 230.761 81.9059C234.105 81.9059 237.236 82.7635 240.152 84.4788C243.068 86.1082 245.383 88.5096 247.098 91.6828ZM108.083 102.805C108.083 110.095 109.669 116.527 112.842 122.102C116.101 127.676 120.518 131.965 126.093 134.966C131.667 138.054 137.885 139.597 144.746 139.597C151.607 139.597 157.825 138.054 163.4 134.966C168.974 131.965 173.348 127.676 176.521 122.102C179.78 116.527 181.41 110.095 181.41 102.805H162.885C162.885 109.58 161.084 114.769 157.482 118.371C153.966 122.059 149.635 123.903 144.489 123.903C139.343 123.903 135.012 122.059 131.496 118.371C128.065 114.769 126.35 109.58 126.35 102.805H108.083Z" fill="black"/>
<g filter="url(#filter0_b_561_838)">
<mask id="path-2-inside-1_561_838" fill="white">
<path fill-rule="evenodd" clip-rule="evenodd" d="M109.561 11.3795C94.9173 3.79316 77.5394 0 57.4268 0H18.3777C8.22799 0 0 8.22799 0 18.3777V166.076C0 176.226 8.22799 184.454 18.3777 184.454H57.4268C60.4065 184.454 63.3261 184.374 66.1858 184.216L296.936 184.216C302.518 184.216 307.044 179.69 307.044 174.108C307.044 168.525 302.518 164 296.936 164L124.654 164C132.304 157.866 138.564 150.481 143.435 141.847C151.374 127.909 155.343 111.501 155.343 92.6238C155.343 73.7462 151.374 57.3385 143.435 43.4009C135.672 29.4632 124.381 18.7894 109.561 11.3795ZM69.7097 164C87.5876 162.155 101.665 156.094 111.942 145.816C124.469 133.114 130.732 115.383 130.732 92.6238C130.732 69.6884 124.381 51.7811 111.678 38.902C99.1516 26.0229 81.0679 19.5833 57.4268 19.5833H24.0822V164L69.7097 164ZM346.259 184.454C351.841 184.454 356.367 179.928 356.367 174.346C356.367 168.764 351.841 164.238 346.259 164.238C340.676 164.238 336.151 168.764 336.151 174.346C336.151 179.928 340.676 184.454 346.259 184.454Z"/>
</mask>
<path fill-rule="evenodd" clip-rule="evenodd" d="M109.561 11.3795C94.9173 3.79316 77.5394 0 57.4268 0H18.3777C8.22799 0 0 8.22799 0 18.3777V166.076C0 176.226 8.22799 184.454 18.3777 184.454H57.4268C60.4065 184.454 63.3261 184.374 66.1858 184.216L296.936 184.216C302.518 184.216 307.044 179.69 307.044 174.108C307.044 168.525 302.518 164 296.936 164L124.654 164C132.304 157.866 138.564 150.481 143.435 141.847C151.374 127.909 155.343 111.501 155.343 92.6238C155.343 73.7462 151.374 57.3385 143.435 43.4009C135.672 29.4632 124.381 18.7894 109.561 11.3795ZM69.7097 164C87.5876 162.155 101.665 156.094 111.942 145.816C124.469 133.114 130.732 115.383 130.732 92.6238C130.732 69.6884 124.381 51.7811 111.678 38.902C99.1516 26.0229 81.0679 19.5833 57.4268 19.5833H24.0822V164L69.7097 164ZM346.259 184.454C351.841 184.454 356.367 179.928 356.367 174.346C356.367 168.764 351.841 164.238 346.259 164.238C340.676 164.238 336.151 168.764 336.151 174.346C336.151 179.928 340.676 184.454 346.259 184.454Z" fill="url(#paint0_linear_561_838)"/>
<path d="M109.561 11.3795L109.101 12.2674L109.107 12.2707L109.114 12.2739L109.561 11.3795ZM66.1858 184.216L66.1858 183.216L66.1581 183.216L66.1304 183.217L66.1858 184.216ZM296.936 184.216L296.936 185.216H296.936V184.216ZM296.936 164L296.936 165H296.936V164ZM124.654 164L124.029 163.22L121.809 165L124.654 165L124.654 164ZM143.435 141.847L142.566 141.352L142.564 141.355L143.435 141.847ZM143.435 43.4009L142.561 43.8875L142.566 43.8958L143.435 43.4009ZM69.7097 164L69.7097 165L69.7612 165L69.8124 164.995L69.7097 164ZM111.942 145.816L112.65 146.523L112.655 146.518L111.942 145.816ZM111.678 38.902L110.961 39.5992L110.966 39.6042L111.678 38.902ZM24.0822 19.5833V18.5833H23.0822V19.5833H24.0822ZM24.0822 164H23.0822V165L24.0822 165L24.0822 164ZM57.4268 1C77.414 1 94.6274 4.76918 109.101 12.2674L110.021 10.4916C95.2073 2.81714 77.6648 -1 57.4268 -1V1ZM18.3777 1H57.4268V-1H18.3777V1ZM1 18.3777C1 8.78028 8.78028 1 18.3777 1V-1C7.67571 -1 -1 7.67571 -1 18.3777H1ZM1 166.076V18.3777H-1V166.076H1ZM18.3777 183.454C8.78028 183.454 1 175.673 1 166.076H-1C-1 176.778 7.67571 185.454 18.3777 185.454V183.454ZM57.4268 183.454H18.3777V185.454H57.4268V183.454ZM66.1304 183.217C63.2899 183.375 60.3887 183.454 57.4268 183.454V185.454C60.4242 185.454 63.3624 185.374 66.2412 185.214L66.1304 183.217ZM296.936 183.216L66.1858 183.216L66.1858 185.216L296.936 185.216L296.936 183.216ZM306.044 174.108C306.044 179.138 301.966 183.216 296.936 183.216V185.216C303.071 185.216 308.044 180.242 308.044 174.108H306.044ZM296.936 165C301.966 165 306.044 169.078 306.044 174.108H308.044C308.044 167.973 303.071 163 296.936 163V165ZM124.654 165L296.936 165L296.936 163L124.654 163L124.654 165ZM142.564 141.355C137.755 149.88 131.577 157.166 124.029 163.22L125.28 164.78C133.03 158.565 139.373 151.083 144.306 142.338L142.564 141.355ZM154.343 92.6238C154.343 111.359 150.405 127.59 142.566 141.352L144.304 142.342C152.343 128.228 156.343 111.644 156.343 92.6238H154.343ZM142.566 43.8958C150.405 57.6579 154.343 73.8889 154.343 92.6238H156.343C156.343 73.6035 152.343 57.0191 144.304 42.9059L142.566 43.8958ZM109.114 12.2739C123.761 19.5975 134.9 30.1326 142.561 43.8874L144.308 42.9143C136.444 28.7938 125 17.9812 110.008 10.4851L109.114 12.2739ZM69.8124 164.995C87.8632 163.132 102.174 156.999 112.65 146.523L111.235 145.109C101.156 155.188 87.3121 161.178 69.607 163.005L69.8124 164.995ZM112.655 146.518C125.412 133.581 131.732 115.57 131.732 92.6238H129.732C129.732 115.196 123.525 132.646 111.23 145.114L112.655 146.518ZM131.732 92.6238C131.732 69.4994 125.323 51.3128 112.39 38.1998L110.966 39.6042C123.438 52.2495 129.732 69.8773 129.732 92.6238H131.732ZM112.395 38.2048C99.6261 25.0765 81.249 18.5833 57.4268 18.5833V20.5833C80.8868 20.5833 98.6771 26.9693 110.961 39.5992L112.395 38.2048ZM57.4268 18.5833H24.0822V20.5833H57.4268V18.5833ZM23.0822 19.5833V164H25.0822V19.5833H23.0822ZM24.0822 165L69.7097 165L69.7097 163L24.0822 163L24.0822 165ZM355.367 174.346C355.367 179.376 351.289 183.454 346.259 183.454V185.454C352.394 185.454 357.367 180.481 357.367 174.346H355.367ZM346.259 165.238C351.289 165.238 355.367 169.316 355.367 174.346H357.367C357.367 168.211 352.394 163.238 346.259 163.238V165.238ZM337.151 174.346C337.151 169.316 341.229 165.238 346.259 165.238V163.238C340.124 163.238 335.151 168.211 335.151 174.346H337.151ZM346.259 183.454C341.229 183.454 337.151 179.376 337.151 174.346H335.151C335.151 180.481 340.124 185.454 346.259 185.454V183.454Z" fill="url(#paint1_linear_561_838)" mask="url(#path-2-inside-1_561_838)"/>
</g>
<path d="M91.0291 138.509H73.0189L32.2387 76.8888V138.509H14.2285V48.587H32.2387L73.0189 110.336V48.587H91.0291V138.509Z" fill="black"/>
<path d="M112.844 83.5968C109.67 89.1714 108.084 95.6036 108.084 102.893H126.351C126.351 96.1182 128.066 90.9295 131.497 87.3275C135.013 83.6397 139.344 81.7958 144.49 81.7958C149.636 81.7958 153.967 83.6397 157.483 87.3275C161.085 90.9295 162.886 96.1182 162.886 102.893H181.411C181.411 95.6036 179.781 89.1714 176.522 83.5968C173.349 78.0222 168.975 73.7341 163.401 70.7324C157.826 67.6449 151.608 66.1012 144.747 66.1012C137.886 66.1012 131.668 67.6449 126.094 70.7324C120.519 73.7341 116.103 78.0222 112.844 83.5968Z" fill="black"/>
<defs>
<filter id="filter0_b_561_838" x="-4" y="-4" width="364.367" height="192.454" filterUnits="userSpaceOnUse" color-interpolation-filters="sRGB">
<feFlood flood-opacity="0" result="BackgroundImageFix"/>
<feGaussianBlur in="BackgroundImageFix" stdDeviation="2"/>
<feComposite in2="SourceAlpha" operator="in" result="effect1_backgroundBlur_561_838"/>
<feBlend mode="normal" in="SourceGraphic" in2="effect1_backgroundBlur_561_838" result="shape"/>
</filter>
<linearGradient id="paint0_linear_561_838" x1="179.883" y1="-0.23817" x2="179.883" y2="184.216" gradientUnits="userSpaceOnUse">
<stop stop-color="white" stop-opacity="0.8"/>
<stop offset="1" stop-color="white" stop-opacity="0.3"/>
</linearGradient>
<linearGradient id="paint1_linear_561_838" x1="179.883" y1="-0.23817" x2="179.883" y2="184.216" gradientUnits="userSpaceOnUse">
<stop stop-color="white"/>
<stop offset="1" stop-color="white" stop-opacity="0.5"/>
</linearGradient>
</defs>
</svg>
