<svg width="1512" height="1316" viewBox="0 0 1512 1316" fill="none" xmlns="http://www.w3.org/2000/svg">
    <rect width="1512" height="215" fill="black"/>
    <rect y="217" width="1512" height="901" fill="#F4FAFF"/>
    <path fill-rule="evenodd" clip-rule="evenodd"
          d="M-4.64418 460.577C-28.6884 357.211 -52.58 243.18 46.9296 156.451C147.367 68.9128 332.864 24.1209 510.919 11.2286C670.592 -0.332632 805.917 66.3194 961.296 90.245C1129.32 116.118 1340.45 81.303 1456.89 156.891C1573.86 232.828 1558.29 354.061 1522.6 454.633C1491.29 542.87 1372.16 605.298 1273.27 674.355C1182.96 737.429 1094.18 797.513 972.688 838.679C823.345 889.281 662.904 964.117 497.188 937.316C331.197 910.471 266.128 795.739 175.639 709.774C92.8402 631.116 16.7005 552.339 -4.64418 460.577Z"
          fill="#F4FAFF"/>
    <path fill-rule="evenodd" clip-rule="evenodd"
          d="M745.378 867.09C946.327 805.514 1153.88 672.446 1349.22 750C1552.13 830.56 1713.29 886.081 1734.42 1103.37C1754.89 1313.91 1572.34 1480.23 1452.36 1654.44C1366.62 1778.94 1238.1 1852.63 1139.5 1967.2C996.062 2133.89 965.285 2475.67 745.378 2475.98C525.601 2476.29 489.992 2138.1 350.448 1968.31C256.871 1854.45 134.691 1775.33 63.4943 1646.29C-22.8764 1489.75 -167.243 1315.81 -101.233 1149.65C-34.6852 982.142 201.43 979.263 361.447 896.298C490.805 829.23 606.061 909.78 745.378 867.09Z"
          fill="#DAF2F5"/>
</svg>
