<svg width="1512" height="975" viewBox="0 0 1512 975" fill="none" xmlns="http://www.w3.org/2000/svg">
    <mask id="mask0_561_779" style="mask-type:alpha" maskUnits="userSpaceOnUse" x="0" y="0" width="1512" height="975">
        <rect width="1512" height="975" fill="#C4C4C4"/>
    </mask>
    <g mask="url(#mask0_561_779)">
        <rect x="-75" width="983" height="975" fill="#DAF2F5"/>
        <rect x="1091" width="421" height="975" fill="#F1D2FB"/>
        <path fill-rule="evenodd" clip-rule="evenodd"
              d="M1094.05 -57.8241C1193.99 -68.5094 1299.38 -109.962 1387.59 -51.2112C1480.08 10.3909 1543.77 130.548 1566.49 256.837C1588.16 377.334 1541.29 494.615 1506.59 610.414C1473.38 721.267 1442.85 835.596 1369.99 912.611C1293.13 993.868 1208.66 1146.18 1108.99 1123.46C1011.67 1101.28 945.777 977.852 883.614 883.138C837.689 813.167 803.868 737.465 781.577 651.829C759.387 566.581 747.221 399.313 755.725 310.418C766.049 202.485 769.214 79.8591 835.394 7.82745C902.969 -65.7228 1004.14 -48.2117 1094.05 -57.8241Z"
              fill="#F1D2FB"/>
        <path fill-rule="evenodd" clip-rule="evenodd"
              d="M928 786.462C1099.68 780.776 1237.71 828.411 1382 884.462C1536.31 944.406 1699.99 905.584 1744.82 1012.47C1789.84 1119.8 1611.58 1210.44 1528.5 1309.27C1460.8 1389.81 1416.27 1476.17 1304.35 1536.45C1182.94 1601.84 1036 1646.92 874.586 1661.48C692.449 1677.91 494.097 1683.32 339.277 1623.51C180.99 1562.37 108.432 1449.8 49.2123 1342.66C-10.3231 1234.96 -137.055 1108.63 -53 1006.96C29.1456 907.604 326.994 944.542 482.5 884.462C625.519 829.206 758.099 792.088 928 786.462Z"
              fill="black"/>
    </g>
</svg>
